<?xml version="1.0" standalone="no"?>
<!DOCTYPE svg PUBLIC "-//W3C//DTD SVG 20010904//EN"
 "http://www.w3.org/TR/2001/REC-SVG-20010904/DTD/svg10.dtd">
<svg version="1.0" xmlns="http://www.w3.org/2000/svg"
 width="512.000000pt" height="512.000000pt" viewBox="0 0 512.000000 512.000000"
 preserveAspectRatio="xMidYMid meet">
<metadata>
Created by potrace 1.14, written by Peter Selinger 2001-2017
</metadata>
<g transform="translate(0.000000,512.000000) scale(0.100000,-0.100000)"
fill="#000000" stroke="none">
<path d="M0 2560 l0 -2560 2560 0 2560 0 0 2560 0 2560 -2560 0 -2560 0 0
-2560z m3565 1939 c31 -9 73 -44 194 -163 150 -148 190 -201 191 -255 0 -22
-3 -23 -46 -18 -25 2 -72 18 -104 34 l-59 29 5 -23 c5 -17 -3 -33 -26 -60 -67
-78 -662 -717 -891 -958 -131 -137 -238 -254 -239 -260 0 -6 41 -12 97 -15
l96 -5 643 -853 c483 -641 645 -862 650 -890 6 -33 4 -39 -31 -69 -44 -38
-117 -68 -192 -78 -40 -5 -62 -16 -102 -50 -28 -24 -66 -54 -84 -66 -17 -12
-60 -51 -93 -87 -34 -36 -68 -62 -75 -60 -22 7 -130 146 -704 908 -297 393
-539 722 -539 730 0 8 4 58 8 110 l7 95 -105 -106 c-59 -58 -106 -110 -106
-115 0 -6 22 -23 50 -39 l50 -29 0 -687 c0 -626 -1 -688 -17 -700 -11 -9 -48
-15 -114 -16 -61 -1 -124 -10 -166 -22 -37 -10 -104 -29 -148 -42 -49 -14
-109 -23 -153 -23 -68 -1 -75 1 -98 27 -13 15 -28 44 -33 65 -7 24 -8 619 -3
1717 l7 1680 30 5 c30 5 95 40 95 51 0 3 -13 18 -30 32 -41 37 -38 52 13 72
36 14 79 16 273 13 227 -3 231 -3 267 -28 21 -14 46 -43 57 -66 19 -39 20 -62
20 -552 0 -334 -4 -520 -11 -538 -6 -17 252 232 623 601 416 415 633 637 633
650 0 30 12 44 48 54 44 13 66 13 112 0z"/>
</g>
</svg>
