<svg id="Layer_1" data-name="Layer 1" xmlns="http://www.w3.org/2000/svg" xmlns:xlink="http://www.w3.org/1999/xlink" viewBox="0 0 400 300"><defs><linearGradient id="linear-gradient" x1="82.13" y1="239.9" x2="92.94" y2="231.58" gradientUnits="userSpaceOnUse"><stop offset="0" stop-opacity="0"/><stop offset="1" stop-color="#3f1e00"/></linearGradient><linearGradient id="linear-gradient-2" x1="120.98" y1="238.94" x2="140.23" y2="224.75" xlink:href="#linear-gradient"/><linearGradient id="linear-gradient-3" x1="204.39" y1="197.95" x2="239.18" y2="177.01" xlink:href="#linear-gradient"/></defs><title>78_Team Presentation_isometric</title><polygon points="237.95 103.97 357.28 172.12 161.68 285.05 42.72 218.45 237.95 103.97" fill="#d66329"/><path d="M93,246.6l5.8-15.08L90,225l-18.86,8.28C79.23,239.13,84.38,241.56,93,246.6Z" opacity="0.32" fill="url(#linear-gradient)"/><path d="M131.12,246.18,156,227.24l-17.19-10.37-29.29,15.82C117.62,238.5,122.49,241.13,131.12,246.18Z" opacity="0.32" fill="url(#linear-gradient-2)"/><path d="M209.92,203.29l41.92-23.83-12-9.74-46.49,24.79C201.5,200.32,201.3,198.24,209.92,203.29Z" opacity="0.32" fill="url(#linear-gradient-3)"/><polygon points="261.3 93.58 254.97 82.1 251.32 76.2 265.43 69.35 274.5 87.93 261.3 93.58" fill="#007f68"/><path d="M246.57,91.47l4-4.46a6,6,0,0,0,.87-1,4.31,4.31,0,0,0,.27-1.88,12.09,12.09,0,0,1,.53-2.71,1.1,1.1,0,0,1,2.15.29c0,.57,0,1.14-.06,1.71l1-.87c1.32,2.4,2.68,4.78,4.12,7.1-.79.05-1.59.06-2.39,0a28.52,28.52,0,0,0-7.52,6.5,1,1,0,0,1-1.73-.35,1.5,1.5,0,0,1-.33-.11l-.05,0a1.12,1.12,0,0,1-.39-1.5l0-.05a.91.91,0,0,1,.54-.52c.22-.25.44-.52.64-.79l-.13.15C247.17,94.06,245.63,92.51,246.57,91.47Z" fill="#fbc76f"/><path d="M254.77,88A4.67,4.67,0,0,0,255.6,86a3.4,3.4,0,0,0-.81-2c-.18-.27.25-.52.43-.25A3.84,3.84,0,0,1,256.1,86a5.14,5.14,0,0,1-.9,2.34A.25.25,0,0,1,254.77,88Z" fill="#007058"/><path d="M211.95,17.93v87.42a7.79,7.79,0,0,1-4,6.78L65.72,192.58A7.79,7.79,0,0,1,54.1,185.8V102.86a7.79,7.79,0,0,1,3.8-6.69L200.17,11.24A7.79,7.79,0,0,1,211.95,17.93Z" fill="#68e1fd"/><path d="M183.74,85.39c.62.15,1.24.32,1.85.49a2.13,2.13,0,0,1-.81-1.31.94.94,0,0,1,1.37-1.05q2.49,1.26,5,2.48c0-.13-.06-.25-.09-.38a5.9,5.9,0,0,1-.29-2.41c.36-1.4,1.63-.63,2.15.48.7,1.49.86,3.08,2.19,4.25a6.68,6.68,0,0,0,2.6,1c.94.27,1.88.52,2.82.76a.94.94,0,0,1,0,1.79.91.91,0,0,1-.08,1.58c.42.67-.07,1.77-1,1.41a36.19,36.19,0,0,0-6.82-2q-3.44-.19-6.87-.57c-1.17-.13-1.21-2,0-1.86H186l-2.06-.35c-1-.17-.8-2,.25-1.83l.25,0h0l.68.1-1-.32c-.6-.21-1.16-.35-1.47-1A.94.94,0,0,1,183.74,85.39Z" fill="#fbc76f"/><path d="M191.14,87a.21.21,0,0,1,.4.11,3.23,3.23,0,0,0,1,3.3c.2.18-.09.47-.29.29A3.65,3.65,0,0,1,191.14,87Z" fill="#007058"/><path d="M185.46,85.56q2.26.6,4.46,1.38c.25.09.14.49-.11.4q-2.2-.78-4.46-1.38A.21.21,0,0,1,185.46,85.56Z" fill="#007058"/><path d="M184.42,87.67l4.75.73c.26,0,.15.44-.11.4l-4.75-.73C184,88,184.16,87.63,184.42,87.67Z" fill="#007058"/><path d="M185.27,89.79q1.92.12,3.84.17c.27,0,.27.42,0,.41q-1.92-.06-3.84-.17C185,90.19,185,89.77,185.27,89.79Z" fill="#007058"/><path d="M243.88,165.08s.12,6.07.83,7,7.08,4.33,7.44,5.88-.77,3.76-3.81,2.93S238,175.35,238,175.35V162.2" fill="#363942"/><path d="M219.5,172l-.78,6.59s2.79,10.16,1.67,11.39-5.14,2.57-6.7,0,.67-12.06.67-12.06l.11-7.15" fill="#363942"/><path d="M234.14,102.27s7.89,32,8.25,37,2.72,28.82,2.72,28.82-7.5,3.33-12.56,1.65l-4-30.13L224.17,108S232.26,100,234.14,102.27Z" fill="#f4b145"/><path d="M219,109.84c-5.57,23.64-6.23,41.49-9.07,62.16,0,0,12.08,4.41,14.74.14,1.8-21.06,3.26-42.18,3.93-63.32Z" fill="#f4b145"/><path d="M196.85,84.79c5.08,1.93,11.1,3.68,15.24,3.14a72,72,0,0,0,15.22-3.78c.67-.22,7.89-3,10.56-.6s2,10.13,2,10.13l9.75-8.44c3.62,1.3,5,5,5.39,8.74-.16.16-.3.3-.37.38q-1,1.24-2.12,2.45c-3.2,3.59-6.86,7.74-11.56,9.3a8.36,8.36,0,0,1-5.62-.35c-1.39-.52-3.44-2.22-5-1.66-.39.14-.76.43-1.18.38-1.12-.14-2.63-1.93-3.68-2.48-2.92-1.52-6.35-1.75-9.58-1.91a70,70,0,0,1-10.48-1.15c-1-.21-11.8-3-12-2.51C195.48,92.12,196,89.53,196.85,84.79Z" fill="#ff7f5c"/><path d="M234.83,77.55c.71,3.38.12,8.06-3.5,8.59-4.66.69-5.82-2.48-5.57-6.38.2-3.1,1.81-7.94,6-6.54a4.31,4.31,0,0,1,2.34,2.16A8.66,8.66,0,0,1,234.83,77.55Z" fill="#fbc76f"/><path d="M235.09,78.3A5.37,5.37,0,0,0,238,73.12c-.2-2.07-2.21-4.72-4.54-3.73-1.58.67-1.15.72-1.15.72a3.27,3.27,0,0,0-3.07-1.1c-2.21.19-2.59,1.54-2.59,1.54s-2.51.84-3.17,2.43c-.76,1.82,1,7.27,1.78,8.8s1.3-1.58,1.58-2.82a3.1,3.1,0,0,1,1.85-2.27c1.36-.37,2,.84,3.11,1.35A3.88,3.88,0,0,0,235.09,78.3Z" fill="#363942"/><path d="M226.3,111.17a19.64,19.64,0,0,1-7.3-1.33l-.49-15.48,18.66,8.75s-.7,3.75-1.5,7.17A26.71,26.71,0,0,1,226.3,111.17Z" fill="#ff7f5c"/><path d="M160.84,112.68s1.41-4.35,1.29-6.23-1.16-4.61,0-5.18,2.58,3.4,2.58,3.4,3.53-7.38,4.58-6.91a2.32,2.32,0,0,1,1.11,1.91s1.13-1.85,1.56-1.08a4,4,0,0,1,0,2.3s1,.18,1.17.86-1.48,3.46-1.48,3.46a1.07,1.07,0,0,1,.92,1c.06.86-6.64,7.54-6.64,7.54" fill="#fbc76f"/><path d="M143.21,111.56s5.89,4.87,8.17,8.6,9.74-9.82,9.74-9.82,5.19,1.71,6.84,2.41-8.39,23.69-15.32,22.9-6.68-2.15-6.68-2.15" fill="#0096df"/><path d="M146.58,206.5c-.12.52-1.45,6.52,0,8.48s4.05,3.23,6,4.91c1,.88,4.94,6.13,1.93,6.7-2.09.39-8.35-1.57-12.26-4.44s-6.63-3.42-6.79-4.93,2.4-13.66,2.4-13.66" fill="#363942"/><path d="M143.75,215.61c.19-2.7.33-5.71.34-7.28A23.44,23.44,0,0,0,143.75,215.61Z" fill="#363942"/><path d="M125.52,218s1.92,5.3,3.14,6.54,6.24,6.34,5.14,8.86-9.75.44-11.89-3.09-3.25-3.57-4-5-1.64-10.16-1.64-10.16" fill="#363942"/><path d="M145.58,144s2.46,64.22.47,65.69-9.18,3.64-12.75,1l3-27.8L128,221.94s-10,1.62-13.1-2.18c-.6-.74.22-3.88.32-4.7.43-3.71.94-7.42,1.45-11.12,1.38-9.9,2.86-19.79,4.36-29.67q.79-5.23,1.6-10.45c.81-5.26,1.82-11,4.58-15.66,1.9-3.24,4.55-8.72,8.3-10.18" fill="#ff7f5c"/><path d="M127.35,148.07c6.34,1.07,12.76.33,18.32-3.06.86-9.83,1.52-19.66.46-29.53a1,1,0,0,1,0-.23,8.88,8.88,0,0,0-2.93-3.69c-3.22-2.17-8.48-1.11-11.6.53a11.53,11.53,0,0,0-2.09,1.46C126.08,124.79,127.47,136.47,127.35,148.07Z" fill="#0096df"/><path d="M139.58,106.92l-5.72-1.19-.48,6.31s4.31,4.41,8.56,3.8l-1.21-5.26A16.93,16.93,0,0,1,139.58,106.92Z" fill="#fcbb5b"/><path d="M139.71,107.51a25,25,0,0,0-5.85-1.79l-.15,3.45s4.28,3.14,6.82.91A16.83,16.83,0,0,1,139.71,107.51Z" fill="#db9231"/><path d="M143.71,100.06s3.81-2.31,3-4.43S143,92.94,143,92.94s-.47-2.7-2.66-3-6,1.48-6,1.48-3.29-.31-4.46,1.54-.74,5.15-.74,5.15,2.75,8.32,4,8.53,4.26-2.85,4.26-2.85" fill="#204a51"/><path d="M143.76,97.44s.9,11-3.79,11.75-6.68-5.67-6.68-5.67-2.84-2.64-1.06-3.24,2,.4,2,.4-1.75-4,.09-4S141.46,99.7,143.76,97.44Z" fill="#fbc76f"/><path d="M139,156.31a571.43,571.43,0,0,1-11.12,59.91c-.15.62.79,1,.94.34A574,574,0,0,0,140,156.38C140.11,155.74,139.11,155.67,139,156.31Z" fill="#363942"/><path d="M133.39,110.26s2.24,2.1,3.71,2.24l2.27,1.24,1.88,2V113s-.56-2.44-.47-2.43,2,3.14,2,3.14l1.88,3.13-2.73-.27-1.18,2s-6.78-3-9.16-6.47Z" fill="#fff"/><path d="M170.09,99.24q-1.84,3.11-3.49,6.31c-.14.27.27.52.41.24q1.66-3.21,3.49-6.31A.24.24,0,0,0,170.09,99.24Z" fill="#204a51"/><path d="M171.63,100.69l-3.19,5.83c-.15.27.27.51.41.24l3.19-5.83C172.19,100.66,171.78,100.42,171.63,100.69Z" fill="#204a51"/><path d="M171.4,105.13a14.61,14.61,0,0,0-1.67,2.37.24.24,0,0,0,.41.24,14,14,0,0,1,1.59-2.28C171.94,105.23,171.61,104.89,171.4,105.13Z" fill="#204a51"/><path d="M165.18,105.36c-.27-.15-.52.27-.24.41a4.76,4.76,0,0,1,2.21,4.45.24.24,0,0,0,.48,0A5.21,5.21,0,0,0,165.18,105.36Z" fill="#204a51"/><path d="M129.52,113.54a15.88,15.88,0,0,0-5.58,6.17c-2,4-7.41,22.31-1,24.92s17.52-3.32,17.52-3.32l-.67-9.73-9.6,1.38" fill="#0096df"/><path d="M141.88,123.89c-.08.31-2.94,18.15-2.94,18.15l11.3-3,2.4-18.24Z" fill="#ff7f5c"/><path d="M137.43,132.65s2-5.11,3-4.8.72,2.92.72,2.92,5.11-2.5,6.47-1.36-2,4.07-3,4.69-6.81,2.82-6.81,2.82Z" fill="#fbc76f"/><path d="M127.35,145.29a97.35,97.35,0,0,0,9.84-2.77s.89-5.11.93-5-.12,6.56-.52,7-10.24,3.49-10.24,3.49Z" fill="#363942"/><path d="M300.29,42.75c3,8.57-.16,17.77-7.14,20.53S278.05,61.35,275,52.78s.16-17.77,7.14-20.53S297.25,34.18,300.29,42.75Z" fill="#007f68"/><path d="M298.16,43.6c3,8.57-.16,17.77-7.14,20.53s-15.1-1.94-18.14-10.51S273,35.85,280,33.09,295.12,35,298.16,43.6Z" fill="#007f68"/><path d="M296,44.46c2.52,7.09-.13,14.7-5.91,17s-12.5-1.6-15-8.7.13-14.7,5.91-17S293.47,37.37,296,44.46Z" fill="#fff"/><path d="M285.19,48.26l-3.91,5.64c-.32.47.36,1,.68.56l3.91-5.64C286.19,48.35,285.51,47.79,285.19,48.26Z" fill="#007f68"/><path d="M285,39.43v8.69a.5.5,0,0,0,1,0V39.43A.5.5,0,0,0,285,39.43Z" fill="#007f68"/><polygon points="328.8 46.28 328.8 136.03 353.75 150.94 353.75 60.88 328.8 46.28" fill="#68e1fd"/><path d="M86.62,203.58a25.56,25.56,0,0,0-5.34,17.58c.71,10.26,6.49,13.24,6.49,13.24l6.88.38s8.18-2.67,7.11-16c-1-12.53-5.08-15.47-5.08-15.47" fill="#68e1fd"/><ellipse cx="91.69" cy="203.58" rx="5.06" ry="1.79" fill="#003b94"/><ellipse cx="91.69" cy="233.31" rx="5.06" ry="1.79" fill="#68e1fd"/><path d="M89.61,204.12,83.48,169c-.13-.77-1.3-.44-1.17.32l6.13,35.16C88.58,205.21,89.74,204.88,89.61,204.12Z" fill="#007f68"/><path d="M90.72,204.24a1.46,1.46,0,0,1,.56,0,1.27,1.27,0,0,1,.63.38q.73-14.73.26-29.48c0-.78-1.23-.78-1.21,0Q91.43,189.7,90.72,204.24Z" fill="#007f68"/><path d="M104.5,170.12a323.29,323.29,0,0,0-11.84,33.78.61.61,0,0,0,1.17.32,323.28,323.28,0,0,1,11.84-33.78C106,169.73,104.79,169.41,104.5,170.12Z" fill="#007f68"/><path d="M84.79,183.46s-.66-.08-3.55-3.12.76-5.33-.91-8.75.69-7.92,1.22-11.34a15.88,15.88,0,0,0,2.54,6.7c2.18,3.12,3.4,5.94,3.17,9.9A35,35,0,0,1,86,184.22" fill="#007f68"/><path d="M91,188.89s-.62-.24-2.69-3.9,2-5,1.24-8.71,2.59-7.51,3.94-10.71a15.88,15.88,0,0,0,.84,7.12c1.36,3.56,1.85,6.58.67,10.37a35,35,0,0,1-3,6.85" fill="#007f68"/><path d="M99.63,182.56s-.56-.36-1.83-4.36,3-4.46,3-8.28,4.07-6.82,6-9.67a15.88,15.88,0,0,0-.64,7.14c.6,3.76.47,6.82-1.47,10.29a35,35,0,0,1-4.38,6.08" fill="#007f68"/><path d="M237.33,92.6a106.52,106.52,0,0,1-1.7,17.71c-.07.41.55.59.63.17A107.58,107.58,0,0,0,238,92.6.33.33,0,0,0,237.33,92.6Z" fill="#363942"/></svg>