<svg id="Layer_2" data-name="Layer 2" xmlns="http://www.w3.org/2000/svg" viewBox="0 0 400 300"><title>0</title><path d="M373.89,183.6c-38.57,20.7-152,86.18-187.77,106.85a21.68,21.68,0,0,1-21.79,0L28.32,211c-5.41-3.16-3.68-9.13,1.77-12.22L219.88,88.49a6.49,6.49,0,0,1,6.41,0L374,172.5A6.33,6.33,0,0,1,373.89,183.6Z" fill="#7f8cff"/><path d="M170.4,191.49s-5.07,6-5.54,9.22-.12,19.15,28,19,26.28-17.13,25.81-18.42-6.38-10.83-6.38-10.83" fill="#fa6c00"/><ellipse cx="191.59" cy="194.17" rx="21.7" ry="12.44" fill="#f7dd02"/><path d="M163.93,159.76c-7.91-5.6-20,3.7-28.43,4-5.73.22-10-2.15-12.14-7.58-.88-2.26-2.1-5.72-2-8.2.12-3.32,2.84-5.34,5.12-7.3,7.1-6.11,17.46-8.34,23.38-15.71,2.79-3.48-2.13-8.46-4.95-4.95-5.23,6.52-14.9,8.9-21.42,14.09-3.09,2.46-6.81,5.36-8.35,9.12s-.43,8.4.65,12.23c2.14,7.62,6.83,13.72,15,15a29.36,29.36,0,0,0,11.94-.86c2.67-.69,5.26-1.66,7.87-2.52,1.16-.38,2.33-.76,3.51-1.08q.88-.26,1.78-.45,2.36-1,2.51,2.84c-4.42.87-2.55,7.62,1.86,6.75C167.54,173.73,170.35,164.31,163.93,159.76Z" fill="#fa6c00"/><path d="M252.78,58.34c-4.58,1.25-9.12,4.87-13,7.46-4.24,2.84-8.31,5.89-12.31,9.05-3.53,2.8,1.45,7.72,4.95,4.95a148.75,148.75,0,0,1,18.49-12.76c1.61-.92,3.76-3.09,5.55-1.21,1.06,1.11.93,3.67.89,5A33.47,33.47,0,0,1,255.06,81c-4.85,13.26-15.5,23.27-25.47,32.79-3.26,3.12,1.69,8.06,4.95,4.95C247.82,106,263,91.12,264.31,71.62,264.79,64.79,261.06,56.07,252.78,58.34Z" fill="#fa6c00"/><path d="M186.32,171s.88,8.39-1.91,13.55a62.41,62.41,0,0,1-4.86,7.8s-.74,8.39,12.37,8.39,10.9-8.1,10.9-8.1A25.9,25.9,0,0,1,198.1,171" fill="#fec617"/><path d="M202.82,192.62A25.9,25.9,0,0,1,198.1,171h-4c.26,10-.28,21.75-6.69,29.35a23.16,23.16,0,0,0,4.46.4C205,200.71,202.82,192.62,202.82,192.62Z" fill="#ffa407"/><path d="M145,88.23v35.72s.61,48.82,46.72,48.82,44.67-49.21,44.67-49.21V88.23" fill="#fec617"/><path d="M236.4,123.55V88.23H210c.22,23-1.07,48.5-16,66.77a65.54,65.54,0,0,1-18.43,15.38,51.88,51.88,0,0,0,16.15,2.39C237.84,172.77,236.4,123.55,236.4,123.55Z" fill="#ffa407"/><ellipse cx="190.71" cy="88.23" rx="45.69" ry="26.93" fill="#f7dd02"/><ellipse cx="191.74" cy="87.52" rx="38.11" ry="21.31" fill="#fa6c00"/><path d="M156.35,57.41c-.91-2.45-1.73-4.93-2.54-7.43-1.14-3.52-2.43-7.22-2.76-11,.65-1.75,3-3.09,4.65-3.48,2.08-.5,4.21.39,6.31.35,2.75,0,4.92-1.13,7.48-1.86a14,14,0,0,1,8,.37c5,1.53,10,1,14.13-2.27,2.34-1.86,4.16-3.38,7.11-4.16,4.56-1.2,9.27-.35,12.28,3.49,2.71,3.46,3.3,8,.42,11.56-1.46,1.8-3.6,2.58-5.76,3.2-2,.57-3.9,1.76-6,2.13l-.23,0c-1.94.32-3.87.21-5.82.78-2.43.72-4.67,1.93-7.06,2.78-3.16,1.13-6.23.69-9.48.28-4.14-.52-6.33.76-9.54,3.12l-.58.4a13.86,13.86,0,0,1-7.52,2A18.27,18.27,0,0,1,156.35,57.41Z"/><path d="M231.24,30.41c.72-1.24,1.46-2.57,2.08-3.94a69.87,69.87,0,0,0,.3-7.4,9.68,9.68,0,0,1,0-3.13,1.31,1.31,0,0,1,1.7-1.16,2.74,2.74,0,0,1,1.65,2.26c.16.82.28,1.65.39,2.48a53.54,53.54,0,0,0,3.31-7.05c.63-1.53,3.09-.72,2.45.82l-.68,1.65a29.9,29.9,0,0,1,2-2.61c.86-1,2.92-.36,2.31,1.12a42.06,42.06,0,0,1-2.93,5.78q1.38-1.7,2.65-3.48c1-1.35,3.13.07,2.16,1.43q-1.79,2.5-3.77,4.85c.74-.35,1.49-.68,2.25-1,1.53-.64,2.72,1.66,1.18,2.3s-2.91,1.29-4.33,2l-.08.16q-3.33,6-6.9,11.84c-.87,1.42-3,0-2.16-1.43l1.09-1.8a1.52,1.52,0,0,1-.93-.73,1.29,1.29,0,0,1-2-1.11A1.34,1.34,0,0,1,231.24,30.41Z" fill="#ffc285"/><path d="M238.63,20.3c1.44,1.56,2.86,3.43,2.26,5.68-.12.45-.83.29-.71-.17.53-2-.78-3.61-2-5C237.82,20.49,238.32,20,238.63,20.3Z" fill="#6d320b"/><path d="M240.3,18.85A54.76,54.76,0,0,0,242.69,13c.11-.33.65-.21.53.13a56,56,0,0,1-2.43,6C240.63,19.43,240.15,19.17,240.3,18.85Z" fill="#6d320b"/><path d="M242.79,20.23a29.19,29.19,0,0,0,3.56-6.89c.12-.33.65-.21.53.13a29.7,29.7,0,0,1-3.61,7C243.08,20.78,242.59,20.52,242.79,20.23Z" fill="#6d320b"/><path d="M244,23a32.31,32.31,0,0,0,3.71-5.17c.18-.3.66,0,.48.26a33,33,0,0,1-3.79,5.28C244.16,23.64,243.76,23.27,244,23Z" fill="#6d320b"/><path d="M179.56,107.68c7.06,1.35,17,2.52,27,.53a60.08,60.08,0,0,0,17-6.35c.1-10-2.92-20-5.55-29.68l-21.9,5.7c-1.46.22-10.65,16.43-17.21,29.77l.22,0A1.06,1.06,0,0,1,179.56,107.68Z" fill="#e2e2e2"/><path d="M195.93,68.34c1.3-6.65,4.3-14.22,1.8-20.5.27-.87,2.59-1.07,2.89-1.51l3.91-1.48a29.2,29.2,0,0,0,19.76-8.8,56.87,56.87,0,0,0,8.09-10.58,27.15,27.15,0,0,1,7.06,6,33.36,33.36,0,0,1,2.89,3.8c-3.84,8-11.2,19.57-23,24,0,0-.42,4.41-.77,14.64,0,0-8.83,8-22.91,5.18C195.74,75.13,195.82,72.36,195.93,68.34Z" fill="#68e1fd"/><path d="M199.65,46.14s-14.87,15.25-42.95,29.43c0,0,1.58,8.82,5.29,12.18,0,0,32.41-14.68,39.87-27.79" fill="#68e1fd"/><path d="M210.84,35.58s3.12,9-2.64,13.11-13.57-4.45-11.44-12.49S207.17,27.84,210.84,35.58Z" fill="#ffc285"/><path d="M196,47.44a2.85,2.85,0,0,0,2.65-.79c.85-.86.77-2.08.78-3.2a4.16,4.16,0,0,1,1.88-3.7c1.51-1,3.41-1.31,4.78-2.57.14-.13.28-.27.41-.42a3.73,3.73,0,0,1-.58.44c-2.23,1.35-5.53,1.68-6.57,2.21s.62,4.64-1.24,6.45-6.25-9.5-3.71-12.57,10.94-6.67,14.58-1.57a13.14,13.14,0,0,1-.37,1.35,6.73,6.73,0,0,1-1.46,3.78c-1.36,1.69-3.33,2.07-5.12,3.1a3.64,3.64,0,0,0-2,3,8.87,8.87,0,0,1-.34,3.15A3.38,3.38,0,0,1,195.83,48C195.49,47.88,195.66,47.36,196,47.44Z"/><path d="M142.11,88.42a42.06,42.06,0,0,1,5.68-3.12q-2.09.63-4.15,1.38c-1.56.57-2.55-1.82-1-2.4q2.89-1.06,5.85-1.88c-.81-.13-1.61-.28-2.42-.44-1.62-.34-1.31-2.9.32-2.57s3.13.58,4.71.78l.15-.09q2.77-1.39,5.57-2.71a23.22,23.22,0,0,0,3.51,8,69.92,69.92,0,0,0-4.29,5.77,9.68,9.68,0,0,1-1.74,2.6,1.31,1.31,0,0,1-2.06,0,2.74,2.74,0,0,1-.09-2.8c.33-.76.7-1.52,1.07-2.26a53.54,53.54,0,0,0-6.72,4c-1.38.91-3-1.14-1.56-2.06l1.5-1a29.9,29.9,0,0,1-3.1,1C142.1,91,140.77,89.29,142.11,88.42Z" fill="#68e1fd"/><path d="M150.43,87.57A54.76,54.76,0,0,0,145.17,91c-.28.21-.65-.19-.37-.4a56,56,0,0,1,5.37-3.55C150.48,86.91,150.73,87.39,150.43,87.57Z" fill="#68e1fd"/><path d="M149.15,85a29.19,29.19,0,0,0-6.83,3.68c-.28.2-.65-.2-.37-.4a29.7,29.7,0,0,1,6.94-3.76C149.23,84.42,149.48,84.9,149.15,85Z" fill="#68e1fd"/><path d="M149.73,82.06a32.31,32.31,0,0,0-6,2.18c-.32.15-.57-.33-.25-.49a33,33,0,0,1,6.11-2.22C150,81.44,150.07,82,149.73,82.06Z" fill="#68e1fd"/><path d="M142.11,88.42a42.06,42.06,0,0,1,5.68-3.12q-2.09.63-4.15,1.38c-1.56.57-2.55-1.82-1-2.4q2.89-1.06,5.85-1.88c-.81-.13-1.61-.28-2.42-.44-1.62-.34-1.31-2.9.32-2.57s3.13.58,4.71.78l.15-.09q2.77-1.39,5.57-2.71a23.22,23.22,0,0,0,3.51,8,69.92,69.92,0,0,0-4.29,5.77,9.68,9.68,0,0,1-1.74,2.6,1.31,1.31,0,0,1-2.06,0,2.74,2.74,0,0,1-.09-2.8c.33-.76.7-1.52,1.07-2.26a53.54,53.54,0,0,0-6.72,4c-1.38.91-3-1.14-1.56-2.06l1.5-1a29.9,29.9,0,0,1-3.1,1C142.1,91,140.77,89.29,142.11,88.42Z" fill="#ffc285"/><path d="M150.43,87.57A54.76,54.76,0,0,0,145.17,91c-.28.21-.65-.19-.37-.4a56,56,0,0,1,5.37-3.55C150.48,86.91,150.73,87.39,150.43,87.57Z" fill="#6d320b"/><path d="M149.15,85a29.19,29.19,0,0,0-6.83,3.68c-.28.2-.65-.2-.37-.4a29.7,29.7,0,0,1,6.94-3.76C149.23,84.42,149.48,84.9,149.15,85Z" fill="#6d320b"/><path d="M149.73,82.06a32.31,32.31,0,0,0-6,2.18c-.32.15-.57-.33-.25-.49a33,33,0,0,1,6.11-2.22C150,81.44,150.07,82,149.73,82.06Z" fill="#6d320b"/><path d="M82,105c-1.26-3.12-3.65-7.41-7.64-7a4.12,4.12,0,0,0-3.47,2.71c-.7,1.94,0,3.83.43,5.74.11.55.7,2.51.22,3s-1.46-1.12-1.86-1.64a7.1,7.1,0,0,0-4-3c-4.46-1-5.72,4.17-4.57,7.44.76,2.17,4.23,1.24,3.47-1-.23-.66-.78-2.19-.08-2.76s1.3.23,1.8.76a32.79,32.79,0,0,0,2.37,2.87c1.77,1.53,4.41,1.71,5.8-.4s.63-5,.09-7.22c-.29-1.18-.87-3.7,1.23-2.6,1.31.69,2.25,2.79,2.76,4.06C79.38,108.12,82.86,107.19,82,105Z" fill="#e54b5d"/><path d="M111.81,56.83c-5.79,0-5.8,9,0,9S117.62,56.83,111.81,56.83Z" fill="#68e1fd"/><path d="M287.36,82.13c-2.9-3-7.48,1.58-4.58,4.58a19.35,19.35,0,0,1,4.59,19.3c-1.21,4,5,5.71,6.25,1.72A25.93,25.93,0,0,0,287.36,82.13Z" fill="#22b573"/><path d="M280.53,149.51a4.68,4.68,0,0,0-3.18-1.32h-.54a4.64,4.64,0,0,0-3.18,1.32,4.5,4.5,0,0,0,0,6.36,4.68,4.68,0,0,0,3.18,1.32h.54a4.64,4.64,0,0,0,3.18-1.32,4.5,4.5,0,0,0,0-6.36Z" fill="#fec617"/><path d="M107.64,112a4.68,4.68,0,0,0-3.18-1.32h-.54a4.64,4.64,0,0,0-3.18,1.32,4.5,4.5,0,0,0,0,6.36,4.68,4.68,0,0,0,3.18,1.32h.54a4.64,4.64,0,0,0,3.18-1.32,4.5,4.5,0,0,0,0-6.36Z" fill="#e54b5d"/><path d="M286.66,176.13l-12.8-10.87a4.62,4.62,0,0,0-6.36,0c-1.61,1.61-1.86,4.78,0,6.36l12.8,10.87a4.62,4.62,0,0,0,6.36,0C288.27,180.88,288.52,177.71,286.66,176.13Z" fill="#68e1fd"/><path d="M106,196.7c-.53.29-1.87.43-1.43-.42.15-.29.7-.49,1-.66a8.37,8.37,0,0,0,2.11-1.77,3.7,3.7,0,0,0,.16-4.68c-1.18-1.47-3.14-1.75-4.9-1.89-.7-.06-2.31.07-2.8-.58-.84-1.1.74-2.18,1.61-2.53,2.29-.93,1.29-4.7-1-3.76-2.74,1.11-5.3,3.43-4.6,6.71.77,3.59,4.27,3.7,7.2,4.08,1.8.23,1,.54,0,1.2a11,11,0,0,0-1.74,1.33,4.05,4.05,0,0,0-1.08,3.82c.89,3.29,4.83,3.94,7.47,2.51C110.2,198.87,108.23,195.5,106,196.7Z" fill="#68e1fd"/><path d="M238.14,111.69l25.7,108.59c.62,2.61-3.41,3.73-4,1.11L234.11,112.8c-.62-2.61,3.41-3.73,4-1.11Z" fill="#373ea6"/><path d="M214,124.55l25.7,108.59c.62,2.61-3.41,3.73-4,1.11L210,125.65c-.62-2.61,3.41-3.73,4-1.11Z" fill="#373ea6"/><path d="M240.81,128.82,216.7,142.29c-2.35,1.31-4.46-2.29-2.11-3.61l24.12-13.47c2.35-1.31,4.46,2.29,2.11,3.61Z" fill="#373ea6"/><path d="M243.33,143.91,220.2,156.83c-2.35,1.31-4.46-2.29-2.11-3.61l23.13-12.92c2.35-1.31,4.46,2.29,2.11,3.61Z" fill="#373ea6"/><path d="M246.13,156.14,223,169c-2.35,1.31-4.46-2.29-2.11-3.61l23.1-12.9c2.35-1.31,4.46,2.29,2.11,3.61Z" fill="#373ea6"/><path d="M249.76,169.29l-22.89,12.79c-2.35,1.31-4.46-2.29-2.11-3.61l22.89-12.79c2.35-1.31,4.46,2.29,2.11,3.61Z" fill="#373ea6"/><path d="M252.91,181.33,230,194.14c-2.35,1.31-4.46-2.29-2.11-3.61l22.94-12.81c2.35-1.31,4.46,2.29,2.11,3.61Z" fill="#373ea6"/><path d="M256.41,195.32l-24.12,13.47c-2.35,1.31-4.46-2.29-2.11-3.61l24.12-13.47c2.35-1.31,4.46,2.29,2.11,3.61Z" fill="#373ea6"/><path d="M177.39,233.5l34.73,18L205,254.62l-25.28-13.1L174,244l-4.72-2.44a7.48,7.48,0,0,0,2-1.63,2.89,2.89,0,0,0,.75-1.51,3.83,3.83,0,0,0-.07-1.19,2.38,2.38,0,0,0-.34-.86l-.23-.3Z" fill="#68e1fd"/><path d="M175.92,252.92,171.22,255l3.88,2.84,4.71-2.07,3,2.2L178,260l5.53,4-4,1.77-5.52-4L169,264l5.54,4-4,1.77-5.53-4-4.72,2.08-3-2.2,4.73-2.08-3.88-2.84-4.73,2.08-2.95-2.2,4.72-2.08-5.55-4,4-1.77,5.53,4,5.06-2.23-5.53-4,4-1.76,5.55,4,4.7-2.08Zm-4.85,6.68-3.87-2.84L162.13,259l3.87,2.84,5.07-2.23" fill="#68e1fd"/></svg>